<svg width="25" height="25" fill="none" xmlns="http://www.w3.org/2000/svg"><g clip-path="url(#a)" fill="#87AB49"><path d="M18.855 13.373c-.031-3.041 2.48-4.497 2.591-4.57-1.41-2.06-3.605-2.344-4.389-2.375-1.866-.191-3.645 1.099-4.594 1.099-.946 0-2.41-1.073-3.96-1.045C6.467 6.513 4.59 7.668 3.54 9.49c-2.116 3.672-.542 9.112 1.52 12.094 1.008 1.457 2.212 3.093 3.789 3.036 1.52-.06 2.093-.984 3.931-.984s2.355.984 3.962.954c1.636-.03 2.67-1.486 3.67-2.947 1.159-1.692 1.635-3.332 1.665-3.413-.039-.021-3.188-1.226-3.22-4.857Zm-3.022-8.919c.837-1.014 1.403-2.426 1.249-3.832-1.209.048-2.668.801-3.535 1.817-.778.899-1.454 2.333-1.273 3.712 1.346.106 2.723-.685 3.56-1.697Z"/></g><defs><clipPath id="a"><path fill="#fff" transform="translate(.305 .622)" d="M0 0h24v24H0z"/></clipPath></defs></svg>