<svg width="151" height="72" fill="none" xmlns="http://www.w3.org/2000/svg"><ellipse cx="35.549" cy="35.793" rx="23.749" ry="24.037" fill="url(#a)"/><path fill-rule="evenodd" clip-rule="evenodd" d="M8.739 44.347c.41-.514 1.205-.437 1.53.135a.978.978 0 0 1-.124 1.125c-1.616 1.845-2.313 3.28-1.849 4.098 1.489 2.624 14.37-2.109 28.772-10.57.496-.292.988-.584 1.475-.877a.568.568 0 0 0 .268-.49c0-3.368 2.698-6.099 6.027-6.099 1.782 0 3.716.054 5.149-1.008 7.183-5.324 11.45-9.859 10.463-11.598-.442-.778-1.885-.909-4.073-.488a.957.957 0 0 1-1.017-.458c-.314-.554.01-1.253.64-1.346 4.31-.638 7.367-.104 8.439 1.784 2.007 3.539-3.516 10.838-13.131 18.261a1.195 1.195 0 0 0-.444.953c0 3.368-2.698 6.099-6.026 6.099a6.05 6.05 0 0 1-.492-.02c-1.485-.121-3.069-.184-4.354.57-16.204 9.52-31.53 13.377-34.233 8.613-1.108-1.953.078-5.051 2.98-8.684Z" fill="#5A78A6"/><ellipse cx="44.838" cy="37.769" rx="3.013" ry="3.05" fill="#70AF09"/><path d="M23.378 27.573c-1.461 3.652-1 7.504-2.793 6.77-1.793-.735-2.061-4.292-.6-7.945 1.462-3.653 4.1-6.018 5.893-5.284 1.793.735-1.038 2.806-2.5 6.459Zm-1.125 10.398c.13 1.203-.42 2.251-1.23 2.341-.808.09-1.57-.812-1.701-2.015-.13-1.203.42-2.25 1.229-2.34.81-.09 1.571.812 1.702 2.014Z" opacity=".32" fill="#E5E5E5"/><path d="M28.537 54.106c-.825-.483-.43-1.292 1.575-1.964 4.226-.94 3.513.96 9.595.229 6.083-.73 9.29-3.269 10.904-4.938 1.292-1.336 2.487-3.143 2.43-2.505-.275 1.356-2.495 4.932-9.176 8.382-8.35 4.313-14.063 1.536-15.328.796Z" fill="#080F1B" fill-opacity=".11"/><path d="M55.407 22.474c.777-.521.995-1.576.432-2.324a25.477 25.477 0 0 0-14.701-9.545A25.245 25.245 0 0 0 22.354 13.7c-5.632 3.446-9.73 8.962-11.438 15.395a26.104 26.104 0 0 0 1.504 17.581c.396.863 1.448 1.166 2.278.705.819-.455 1.112-1.481.728-2.335a22.62 22.62 0 0 1-1.222-15.057c1.48-5.574 5.031-10.354 9.912-13.34a21.875 21.875 0 0 1 16.276-2.681 22.073 22.073 0 0 1 12.578 8.06c.581.754 1.647.976 2.437.446ZM20.998 54.87c-.573.751-.441 1.83.334 2.357a25.307 25.307 0 0 0 12.297 4.309c4.97.38 9.942-.723 14.3-3.172a25.674 25.674 0 0 0 10.22-10.605 26.074 26.074 0 0 0 2.891-12.843c-.032-.944-.867-1.628-1.8-1.533-.938.095-1.618.943-1.596 1.894a22.591 22.591 0 0 1-2.511 10.884 22.246 22.246 0 0 1-8.857 9.19 21.883 21.883 0 0 1-12.39 2.749 21.926 21.926 0 0 1-10.457-3.6c-.785-.521-1.855-.385-2.43.37Z" fill="#5A78A6"/><path d="M75.072 53.945c-.582 0-.874-.157-.874-.471v-9.281c0-.207.044-.354.132-.442.097-.099.247-.148.45-.148h4.79c.155 0 .266.06.334.177.068.118.102.305.102.56v.457c0 .255-.034.442-.102.56-.068.117-.18.176-.335.176H76.44v2.593h3.028c.155 0 .266.059.334.177s.102.304.102.56v.456c0 .256-.034.442-.102.56-.068.118-.18.177-.335.177H76.44v3.418c0 .314-.291.471-.873.471h-.495Zm9.183 0c-.582 0-.873-.157-.873-.471v-9.281c0-.207.043-.354.13-.442.098-.099.248-.148.452-.148h2.838c2.416 0 3.624.923 3.624 2.77 0 .55-.155 1.031-.465 1.444-.301.402-.713.702-1.237.898v.06c.184.068.373.235.567.5.194.255.354.54.48.855l1.281 3.24a.908.908 0 0 1 .073.28c0 .089-.073.163-.218.221-.146.05-.364.074-.655.074h-.597c-.475 0-.757-.103-.844-.31l-1.15-2.872c-.165-.324-.344-.55-.538-.678-.185-.137-.495-.206-.932-.206h-.568v3.595c0 .314-.29.471-.873.471h-.495Zm2.751-6.025c.3 0 .563-.123.786-.369.223-.245.335-.545.335-.898 0-.344-.112-.614-.335-.81-.213-.207-.51-.31-.888-.31h-1.28v2.387h1.382Zm7.924 5.996c-.205 0-.355-.045-.452-.133-.087-.098-.131-.25-.131-.457v-9.133c0-.207.044-.354.131-.442.097-.099.247-.148.451-.148h5.109c.155 0 .267.06.335.177.068.118.102.305.102.56v.457c0 .255-.034.442-.102.56-.068.117-.18.176-.335.176h-3.45v2.136h3.057c.155 0 .267.06.335.177.068.118.102.305.102.56v.457c0 .255-.034.441-.102.56-.068.117-.18.176-.335.176H96.59v2.387h3.464c.155 0 .266.059.334.177.068.117.102.304.102.56v.456c0 .255-.034.442-.102.56-.068.118-.179.177-.334.177H94.93Zm9.91 0c-.204 0-.354-.045-.451-.133-.088-.098-.131-.25-.131-.457v-9.133c0-.207.043-.354.131-.442.097-.099.247-.148.451-.148h5.109c.155 0 .267.06.334.177.068.118.102.305.102.56v.457c0 .255-.034.442-.102.56-.067.117-.179.176-.334.176h-3.45v2.136h3.057c.155 0 .267.06.334.177.068.118.102.305.102.56v.457c0 .255-.034.441-.102.56-.067.117-.179.176-.334.176h-3.057v2.387h3.464c.156 0 .267.059.335.177.068.117.102.304.102.56v.456c0 .255-.034.442-.102.56-.068.118-.179.177-.335.177h-5.123Zm17.788.029c-.475 0-.747-.103-.815-.31l-3.144-9.472a1.32 1.32 0 0 1-.058-.265c0-.216.296-.324.888-.324h.509c.485 0 .772.142.859.427l1.805 5.849c.184.599.291 1.046.32 1.34h.058c.029-.294.136-.741.321-1.34l1.863-5.85c.097-.285.383-.427.858-.427h.422c.583 0 .874.108.874.324 0 .069-.015.157-.044.265l-3.144 9.473c-.068.206-.339.31-.815.31h-.757Zm8.707 0c-.582 0-.873-.157-.873-.471v-9.281c0-.207.043-.354.131-.442.097-.099.247-.148.451-.148h3.056c.913 0 1.718.226 2.417.678.698.442 1.048 1.291 1.048 2.549 0 .864-.204 1.537-.612 2.018-.407.471-.863.79-1.368.957-.504.167-.951.25-1.339.25h-1.543v3.419c0 .314-.291.471-.873.471h-.495Zm2.664-5.834c.349 0 .645-.093.887-.28.253-.186.379-.52.379-1.001 0-.482-.126-.816-.379-1.002a1.363 1.363 0 0 0-.887-.295h-1.296v2.578h1.296Zm7.602 5.834c-.582 0-.873-.157-.873-.471v-9.429c0-.314.291-.471.873-.471h.626c.233 0 .427.03.582.088.155.05.281.153.378.31l3.275 5.112c.194.284.369.574.524.869l.059-.015c-.02-.226-.03-.56-.03-1.002v-4.89c0-.315.292-.472.874-.472h.422c.582 0 .873.157.873.471v9.429c0 .314-.291.471-.873.471h-.553c-.233 0-.427-.025-.582-.074a.754.754 0 0 1-.379-.324l-3.348-5.185a9.125 9.125 0 0 1-.524-.87l-.058.015c.02.226.029.56.029 1.002v4.965c0 .314-.291.471-.873.471h-.422Z" fill="#7FB02E"/><path d="M75.844 38.41c-1.097 0-1.645-.296-1.645-.888V20.04c0-.389.082-.666.246-.833.183-.185.466-.277.85-.277h5.758c1.718 0 3.235.425 4.55 1.276 1.317.833 1.975 2.433 1.975 4.8 0 1.629-.384 2.896-1.152 3.802-.767.889-1.626 1.49-2.577 1.804-.95.315-1.791.472-2.522.472H78.42v6.438c0 .592-.549.888-1.645.888h-.932Zm5.016-10.99c.658 0 1.215-.176 1.672-.527.475-.352.713-.98.713-1.887s-.238-1.536-.713-1.887c-.457-.37-1.014-.555-1.672-.555h-2.44v4.856h2.44Zm12.813 11.156c-2.669 0-4.003-1.498-4.003-4.495V18.319c0-.592.548-.888 1.645-.888h.768c1.096 0 1.645.296 1.645.888v15.817c0 .426.073.731.22.916.164.185.42.278.767.278.091 0 .21-.019.356-.056a1.88 1.88 0 0 1 .384-.055c.165 0 .31.138.439.416.128.277.228.583.301.916.073.333.11.555.11.666 0 .906-.877 1.36-2.632 1.36Zm7.618 0c-1.407 0-2.44-.37-3.098-1.11-.64-.74-.96-1.72-.96-2.941 0-1.48.53-2.71 1.59-3.69 1.08-.981 3.172-1.472 6.279-1.472v-.915c0-.537-.173-.934-.521-1.193-.329-.26-.868-.389-1.617-.389-.622 0-1.17.065-1.645.194a8.86 8.86 0 0 0-1.234.444c-.366.167-.576.25-.63.25-.183 0-.384-.139-.604-.416a4.786 4.786 0 0 1-.576-.944c-.164-.37-.246-.656-.246-.86 0-.314.228-.62.685-.916.457-.296 1.088-.536 1.892-.721a11.87 11.87 0 0 1 2.659-.278c2.066 0 3.564.417 4.497 1.25.932.813 1.398 1.942 1.398 3.385v5.216c0 .851.018 1.499.055 1.943.055.444.119.934.192 1.47.054.241.082.445.082.611 0 .296-.375.518-1.124.666-.731.148-1.38.222-1.947.222-.329 0-.557-.13-.685-.388a4.594 4.594 0 0 1-.302-.888 59.552 59.552 0 0 1-.109-.639c-.11.204-.329.472-.658.805-.329.315-.786.61-1.371.888s-1.252.416-2.002.416Zm1.344-3.246c.512 0 .996-.167 1.453-.5.457-.333.795-.75 1.014-1.249v-1.526c-2.559 0-3.838.685-3.838 2.054 0 .37.119.666.356.888.238.222.576.333 1.015.333Zm11.732 3.08c-1.097 0-1.645-.296-1.645-.888v-8.797c0-.814-.027-1.433-.082-1.859a28.597 28.597 0 0 0-.165-1.47 3.082 3.082 0 0 1-.082-.583c0-.296.365-.518 1.097-.666.749-.148 1.407-.222 1.974-.222.329 0 .557.13.685.388.128.24.219.509.274.805.073.296.119.5.137.61.439-.592 1.024-1.091 1.755-1.498a4.718 4.718 0 0 1 2.33-.61c1.371 0 2.386.37 3.044 1.11.658.72.987 1.85.987 3.385v9.407c0 .592-.549.888-1.645.888h-.768c-1.097 0-1.645-.296-1.645-.888v-8.797c0-.573-.128-.999-.384-1.276-.256-.296-.676-.444-1.261-.444a1.95 1.95 0 0 0-1.316.5 3.657 3.657 0 0 0-.877 1.11v8.907c0 .592-.549.888-1.645.888h-.768Zm20.224.166c-2.413 0-4.213-.647-5.401-1.942-1.17-1.314-1.755-3.127-1.755-5.439 0-2.608.585-4.523 1.755-5.744 1.188-1.221 2.823-1.832 4.907-1.832 2.029 0 3.519.666 4.469 1.998.969 1.332 1.453 3.053 1.453 5.162 0 .222-.192.555-.576.999-.365.425-.639.638-.822.638h-6.991c.091 1.054.402 1.804.932 2.248.53.444 1.27.666 2.221.666a5.48 5.48 0 0 0 1.398-.167c.42-.13.859-.287 1.316-.472.292-.148.493-.222.603-.222.183 0 .384.14.603.417.238.259.43.564.576.915.164.333.247.592.247.777 0 .426-.284.796-.85 1.11-.567.296-1.243.518-2.029.666-.786.148-1.472.222-2.056.222Zm1.48-8.907c0-.851-.164-1.526-.493-2.026-.329-.518-.823-.777-1.481-.777-1.352 0-2.175.934-2.467 2.803h4.441Zm11.106 8.907c-2.669 0-4.003-1.498-4.003-4.495v-6.993h-.439c-.292 0-.503-.11-.631-.333-.127-.222-.191-.573-.191-1.054v-.472c0-.481.064-.833.191-1.055.128-.222.339-.333.631-.333h.439l.356-2.636c.092-.592.585-.888 1.481-.888h.85c.913 0 1.37.296 1.37.888v2.636h1.344c.292 0 .502.111.63.333.128.222.192.574.192 1.055v.472c0 .48-.064.832-.192 1.054-.128.222-.338.333-.63.333h-1.344v7.048c0 .426.074.731.22.916.164.185.42.278.767.278.092 0 .211-.019.357-.056a1.87 1.87 0 0 1 .384-.055c.164 0 .31.138.438.416.128.277.229.583.302.916.073.333.11.555.11.666 0 .906-.878 1.36-2.632 1.36Z" fill="#5A78A6"/><defs><linearGradient id="a" x1="10.363" y1="-5.317" x2="46.939" y2="56.251" gradientUnits="userSpaceOnUse"><stop offset=".395" stop-color="#E35959"/><stop offset=".72" stop-color="#E26630"/><stop offset=".75" stop-color="#95DB24"/></linearGradient></defs></svg>