<svg width="24" height="25" fill="none" xmlns="http://www.w3.org/2000/svg"><g clip-path="url(#a)" fill="#87AB49"><path d="M10.51 10.721a.703.703 0 1 0 .995.994.701.701 0 0 1 .494-.206c.25 0 .417.13.495.206a.703.703 0 1 0 .994-.994 2.095 2.095 0 0 0-1.489-.619c-.757 0-1.258.388-1.488.619ZM12 1.665a10.476 10.476 0 0 0-7.458 3.093.703.703 0 1 0 .994.994A9.078 9.078 0 0 1 12 3.072c2.441 0 4.737.95 6.464 2.68a.703.703 0 1 0 .995-.994A10.476 10.476 0 0 0 12 1.665Z"/><path d="M17.469 7.74a.703.703 0 0 0 0-.995 7.68 7.68 0 0 0-5.468-2.268 7.68 7.68 0 0 0-5.469 2.268.703.703 0 1 0 .994.995 6.284 6.284 0 0 1 4.475-1.856c1.69 0 3.278.659 4.474 1.856.274.274.72.274.994 0Z"/><path d="M15.48 9.727a.703.703 0 0 0 0-.994c-1.86-1.86-5.098-1.86-6.958 0a.703.703 0 1 0 .995.994c1.329-1.33 3.639-1.33 4.968 0 .275.275.72.275.995 0Zm6.41 4.594H2.11c-1.164 0-2.11.946-2.11 2.11v4.218c0 1.163.946 2.11 2.11 2.11h.703v.75a.703.703 0 1 0 1.406 0v-.75H19.78v.75a.703.703 0 1 0 1.407 0v-.75h.703a2.112 2.112 0 0 0 2.109-2.11V16.43a2.111 2.111 0 0 0-2.11-2.109Zm-6.328 4.922a.703.703 0 1 1-1.406 0v-1.406a.703.703 0 1 1 1.406 0v1.406Zm2.813 0a.703.703 0 1 1-1.406 0v-1.406a.703.703 0 1 1 1.406 0v1.406Zm2.813 0a.703.703 0 1 1-1.407 0v-1.406a.703.703 0 1 1 1.407 0v1.406ZM.473 4.534a.703.703 0 0 0-.369.923L3.3 12.915h1.53L1.396 4.904a.701.701 0 0 0-.923-.37ZM20.7 12.915l3.195-7.458a.703.703 0 1 0-1.292-.553l-3.433 8.01h1.53Z"/></g><defs><clipPath id="a"><path fill="#fff" transform="translate(0 .938)" d="M0 0h24v24H0z"/></clipPath></defs></svg>