<svg width="25" height="25" fill="none" xmlns="http://www.w3.org/2000/svg"><g clip-path="url(#a)" fill="#87AB49"><path d="M4.137 8.396c-.414 0-.765.144-1.053.432a1.416 1.416 0 0 0-.433 1.039v6.202c0 .414.145.764.433 1.053.288.288.64.432 1.053.432a1.41 1.41 0 0 0 1.046-.432 1.45 1.45 0 0 0 .425-1.053V9.867c0-.404-.144-.75-.433-1.039a1.417 1.417 0 0 0-1.038-.432ZM16.08 2.828 17.104.94c.067-.125.043-.22-.072-.288-.125-.058-.222-.029-.289.086l-1.038 1.904a7.09 7.09 0 0 0-2.9-.606 7.09 7.09 0 0 0-2.898.606L8.868.737C8.801.622 8.705.593 8.58.651c-.116.067-.14.163-.072.288l1.024 1.89a6.324 6.324 0 0 0-2.48 2.213 5.592 5.592 0 0 0-.924 3.109h13.34a5.6 5.6 0 0 0-.922-3.109 6.35 6.35 0 0 0-2.466-2.214Zm-5.921 2.748a.54.54 0 0 1-.397.166.516.516 0 0 1-.39-.166.553.553 0 0 1-.158-.397c0-.153.053-.285.159-.396a.518.518 0 0 1 .39-.166.54.54 0 0 1 .396.166c.11.111.166.243.166.396a.543.543 0 0 1-.166.397Zm6.079 0a.517.517 0 0 1-.39.166.54.54 0 0 1-.396-.166.54.54 0 0 1-.166-.397.54.54 0 0 1 .166-.396.541.541 0 0 1 .397-.166c.154 0 .283.055.389.166a.554.554 0 0 1 .159.396.553.553 0 0 1-.159.397ZM6.185 18.275c0 .443.153.818.46 1.125.309.308.683.462 1.126.462h1.067l.015 3.274c0 .413.144.765.432 1.053a1.42 1.42 0 0 0 1.039.433c.413 0 .764-.145 1.053-.433.288-.288.432-.64.432-1.053v-3.274h1.99v3.274c0 .413.145.765.433 1.053.289.288.64.433 1.053.433.413 0 .764-.145 1.053-.433.288-.288.432-.64.432-1.053v-3.274h1.082c.433 0 .803-.154 1.11-.461a1.53 1.53 0 0 0 .462-1.125V8.669H6.184v9.606Zm15.289-9.879c-.404 0-.75.142-1.038.425a1.41 1.41 0 0 0-.433 1.046v6.202c0 .414.144.764.433 1.053.288.288.634.432 1.038.432.413 0 .764-.144 1.053-.432.288-.289.432-.64.432-1.053V9.867a1.41 1.41 0 0 0-.432-1.046 1.447 1.447 0 0 0-1.053-.425Z"/></g><defs><clipPath id="a"><path fill="#fff" transform="translate(.805 .622)" d="M0 0h24v24H0z"/></clipPath></defs></svg>