<svg width="24" height="25" fill="none" xmlns="http://www.w3.org/2000/svg"><g clip-path="url(#a)" fill="#87AB49"><path d="M5.532 15.337v-.051a9.903 9.903 0 0 1 0-4.695v-.051C6.639 5.783 10.96 2.143 16.25 1.73A11.914 11.914 0 0 0 12 .938c-6.617 0-12 5.384-12 12 0 6.617 5.383 12 12 12a11.9 11.9 0 0 0 4.248-.792c-5.288-.41-9.609-4.053-10.716-8.81Z"/><path d="M19.205 3.364a11.33 11.33 0 0 0-1.954-.176c-2.064 0-3.984.564-5.61 1.523.12-.008.238-.023.36-.023 3.727 0 6.75 3.693 6.75 8.25s-3.023 8.25-6.75 8.25c-.122 0-.24-.015-.36-.022a11.018 11.018 0 0 0 5.61 1.522c.667 0 1.32-.064 1.954-.175 2.906-2.193 4.796-5.663 4.796-9.575 0-3.912-1.89-7.381-4.796-9.574Z"/></g><defs><clipPath id="a"><path fill="#fff" transform="translate(0 .938)" d="M0 0h24v24H0z"/></clipPath></defs></svg>