<svg width="25" height="25" fill="none" xmlns="http://www.w3.org/2000/svg"><path d="M22.149 18.64a8.91 8.91 0 0 1-.988.442 9.55 9.55 0 0 1-3.366.605c-4.436 0-8.3-3.051-8.3-6.967a2.951 2.951 0 0 1 1.54-2.56c-4.013.168-5.044 4.35-5.044 6.8 0 6.925 6.384 7.627 7.759 7.627.742 0 1.86-.215 2.531-.427l.123-.041a12.032 12.032 0 0 0 6.244-4.95.376.376 0 0 0-.499-.529Z" fill="#87AB49"/><path opacity=".35" d="M22.149 18.64a8.91 8.91 0 0 1-.988.442 9.55 9.55 0 0 1-3.366.605c-4.436 0-8.3-3.051-8.3-6.967a2.951 2.951 0 0 1 1.54-2.56c-4.013.168-5.044 4.35-5.044 6.8 0 6.925 6.384 7.627 7.759 7.627.742 0 1.86-.215 2.531-.427l.123-.041a12.032 12.032 0 0 0 6.244-4.95.376.376 0 0 0-.499-.529Z" fill="#87AB49"/><path d="M10.399 23.41a7.426 7.426 0 0 1-2.132-2 7.568 7.568 0 0 1 2.768-11.25c.293-.138.792-.388 1.457-.376a3.033 3.033 0 0 1 2.408 1.22c.379.505.588 1.117.597 1.748 0-.02 2.293-7.462-7.5-7.462-4.116 0-7.5 3.906-7.5 7.332a12.202 12.202 0 0 0 1.135 5.25 12 12 0 0 0 14.66 6.292 7.081 7.081 0 0 1-5.885-.75l-.008-.004Z" fill="#87AB49"/><path opacity=".41" d="M10.399 23.41a7.426 7.426 0 0 1-2.132-2 7.568 7.568 0 0 1 2.768-11.25c.293-.138.792-.388 1.457-.376a3.033 3.033 0 0 1 2.408 1.22c.379.505.588 1.117.597 1.748 0-.02 2.293-7.462-7.5-7.462-4.116 0-7.5 3.906-7.5 7.332a12.202 12.202 0 0 0 1.135 5.25 12 12 0 0 0 14.66 6.292 7.081 7.081 0 0 1-5.885-.75l-.008-.004Z" fill="#87AB49"/><path d="M14.767 14.732c-.076.099-.31.235-.31.531 0 .245.16.48.443.678 1.348.937 3.89.814 3.897.814a5.584 5.584 0 0 0 2.837-.783 5.754 5.754 0 0 0 2.853-4.958c.025-2.1-.75-3.497-1.063-4.116C21.438 3.012 17.15.777 12.486.777a12 12 0 0 0-12 11.831c.045-3.426 3.45-6.192 7.5-6.192.328 0 2.2.032 3.938.944 1.532.804 2.334 1.776 2.892 2.738.58 1 .682 2.264.682 2.768 0 .503-.256 1.25-.73 1.867Z" fill="#87AB49"/><path d="M14.767 14.732c-.076.099-.31.235-.31.531 0 .245.16.48.443.678 1.348.937 3.89.814 3.897.814a5.584 5.584 0 0 0 2.837-.783 5.754 5.754 0 0 0 2.853-4.958c.025-2.1-.75-3.497-1.063-4.116C21.438 3.012 17.15.777 12.486.777a12 12 0 0 0-12 11.831c.045-3.426 3.45-6.192 7.5-6.192.328 0 2.2.032 3.938.944 1.532.804 2.334 1.776 2.892 2.738.58 1 .682 2.264.682 2.768 0 .503-.256 1.25-.73 1.867Z" fill="#87AB49"/></svg>