<svg width="26" height="26" fill="none" xmlns="http://www.w3.org/2000/svg"><path fill-rule="evenodd" clip-rule="evenodd" d="M24.263 17.713a12.585 12.585 0 0 1-4.397 5.574c-.45.32-1.067.161-1.35-.313l-1.595-2.677c-.283-.474-.122-1.083.31-1.427a7.469 7.469 0 1 0-9.277.013c.433.342.596.95.314 1.426l-1.588 2.68c-.282.476-.898.636-1.35.318a12.585 12.585 0 1 1 18.933-5.594Zm-7.82-4.69c0 1.243-.589 2.35-1.502 3.055-.35.27-.578.695-.5 1.13l1.25 7.056a1 1 0 0 1-.984 1.174h-3.859a1 1 0 0 1-.989-1.147l1.045-6.99c.066-.445-.18-.868-.547-1.128a3.858 3.858 0 1 1 6.086-3.15Z" fill="#87AB49"/></svg>