<svg width="25" height="25" fill="none" xmlns="http://www.w3.org/2000/svg"><g clip-path="url(#a)"><path fill-rule="evenodd" clip-rule="evenodd" d="M12.832 24.938c6.627 0 12-5.372 12-12 0-6.627-5.373-12-12-12s-12 5.373-12 12c0 6.628 5.373 12 12 12Zm-1.175-4.406V19.04c0-2.025-.235-3.026-1.047-4.774L6.656 5.72H9.39l3.356 7.31c.983 2.131 1.41 3.24 1.41 5.69v1.812h-2.5ZM16.38 5.72l-3.12 7.16h2.586l3.163-7.16h-2.63Z" fill="#87AB49"/></g><defs><clipPath id="a"><path fill="#fff" transform="translate(.832 .938)" d="M0 0h24v24H0z"/></clipPath></defs></svg>