<svg width="24" height="25" fill="none" xmlns="http://www.w3.org/2000/svg"><g clip-path="url(#a)"><path d="M14.497 15.95c1.529 0 3.037-.904 4.001-2.05 1.354-1.61 1.513-4.005.92-5.953a7.148 7.148 0 0 0-.75-1.666 8.077 8.077 0 0 0-1.299-1.588c-2.302-2.202-5.608-3.127-8.708-2.563-1.051.191-2.113.534-3.032 1.085a.661.661 0 0 0-.012.009l.004-.004-.006.004-.007.005a.17.17 0 0 1 .004-.003l-.004.002c.948-.92 2.447-1.656 4.152-2.015a11.67 11.67 0 0 1 2.45-.246c1.798 0 3.587.44 5.202 1.223a10.811 10.811 0 0 1 3.04 2.192c.681.702 1.3 1.469 1.811 2.303a11.776 11.776 0 0 1 1.328 3.09l.002.009c.265.992.407 2.034.407 3.11 0 6.636-5.38 12.016-12.016 12.016-5.944 0-10.879-4.315-11.845-9.983-.025-.153-.036-.31-.054-.464A12.87 12.87 0 0 1 0 13.033c-.006-1.606.284-3.212.864-4.608a8.052 8.052 0 0 1 1.589-2.399c.28-.284.562-.508.822-.642a13.071 13.071 0 0 0-.852 2.105 9.486 9.486 0 0 0-.396 1.95 9.207 9.207 0 0 1 .57-1.434 8.225 8.225 0 0 1 1.63-2.235 7.964 7.964 0 0 1 1.078-.876c1.42-.955 3.078-1.369 4.472-1.33 1.01.029 1.882.296 2.422.767a4.516 4.516 0 0 0-.116.041c-.039.013-.078.03-.116.045-2.4.97-4.905 4.29-4.33 8.16.106.718.31 1.311.588 1.895-.458-1.212-.5-2.922.242-4.028.827-1.233 2.014-1.499 2.646-1.363-1.903 1.618-1.51 4.963 1.12 6.306a5.077 5.077 0 0 0 2.264.563Z" fill="#87AB49"/></g><defs><clipPath id="a"><path fill="#fff" transform="translate(0 .938)" d="M0 0h24v24H0z"/></clipPath></defs></svg>