<svg width="25" height="25" fill="none" xmlns="http://www.w3.org/2000/svg"><g clip-path="url(#a)" fill="#87AB49"><path d="M6.978 18.045a1 1 0 0 1 .95-1.76 9.657 9.657 0 0 0 3.724 1.11 17.4 17.4 0 0 1 .452-3.145H9.521v-1c0-3.021 2.059-8.245 2.944-10.353H2.5c-1.1 0-2 .9-2 2v16.081c0 1.1.9 2 2 2h9.947a13.423 13.423 0 0 1-.771-3.574 11.638 11.638 0 0 1-4.699-1.359ZM6.593 8.32a.86.86 0 0 1 1.72 0v1.25a.86.86 0 1 1-1.72 0V8.32Z"/><path d="M22.5 2.897h-7.858c-.336.767-2.606 6.032-3.046 9.353h3.281l-.506 1.35c-.01.027-.575 1.6-.706 3.762a9.631 9.631 0 0 0 3.594-1.18 1 1 0 1 1 .99 1.739 11.64 11.64 0 0 1-4.564 1.45 11.18 11.18 0 0 0 .722 3.163.998.998 0 0 1 .064.445H22.5c1.1 0 2-.9 2-2V4.897c0-1.1-.9-2-2-2Zm-3.886 6.688a.86.86 0 0 1-1.72 0v-1.25a.86.86 0 1 1 1.72 0v1.25Z"/></g><defs><clipPath id="a"><path fill="#fff" transform="translate(.5 .938)" d="M0 0h24v24H0z"/></clipPath></defs></svg>