<svg width="26" height="26" fill="none" xmlns="http://www.w3.org/2000/svg"><g clip-path="url(#a)"><path d="M22.681 20.511c-.733-.3-1.047-.698-1.016-1.293.03-.694-.363-1.202-.55-1.403.113-.431.443-1.924 0-3.22-.475-1.388-1.928-3.508-3.426-5.591-.614-.856-.643-1.786-.677-2.863-.032-1.027-.068-2.191-.64-3.485-.623-1.41-1.873-2.218-3.43-2.218-.925 0-1.876.29-2.607.794-1.497 1.034-1.3 3.287-1.168 4.778.017.204.034.397.044.562.087 1.46.008 2.23-.096 2.464-.067.153-.397.588-.747 1.048-.362.477-.772 1.017-1.108 1.52-.401.605-.725 1.53-1.038 2.426-.23.655-.446 1.274-.656 1.643-.4.711-.3 1.374-.217 1.68-.151.106-.37.313-.554.702-.223.476-.675.731-1.615.912-.432.088-.73.27-.885.54-.227.392-.104.886.009 1.223.166.496.063.81-.126 1.38-.043.13-.093.28-.142.444a.801.801 0 0 0 .084.7c.355.543 1.39.734 2.457.86.637.076 1.334.33 2.008.577.66.241 1.343.49 1.964.566.094.012.187.018.278.018.937 0 1.36-.622 1.494-.877a16.615 16.615 0 0 1 2.695-.318c1.195-.034 2.35.201 2.678.275.103.197.374.647.807.879.238.13.569.204.908.204.362 0 1.05-.085 1.595-.659.544-.576 1.902-1.311 2.894-1.848.221-.12.428-.232.61-.333.557-.31.861-.75.834-1.211-.023-.383-.276-.718-.661-.876Zm-12.334-.11c-.069-.49-.697-.974-1.425-1.535-.595-.459-1.27-.978-1.456-1.419-.384-.908-.081-2.505.447-3.328.26-.412.474-1.036.68-1.64.222-.652.452-1.326.71-1.622.407-.46.784-1.357.85-2.064.382.365.974.827 1.52.827a.896.896 0 0 0 .245-.033c.374-.108.924-.426 1.456-.734.459-.265 1.025-.592 1.237-.621.365.524 2.486 5.217 2.703 6.725a7.129 7.129 0 0 1-.1 2.564 1.888 1.888 0 0 0-.253-.018c-.59 0-.747.323-.788.515-.105.5-.116 2.1-.117 2.46-.214.27-1.294 1.549-2.845 1.779-.631.091-1.221.138-1.753.138-.454 0-.744-.035-.865-.053l-.78-.892c.308-.152.615-.472.534-1.05Zm.99-14.705a.794.794 0 0 0-.072.034 1.468 1.468 0 0 0-.017-.16c-.085-.49-.41-.845-.772-.845a.546.546 0 0 0-.083.006c-.216.036-.385.198-.477.428.08-.504.366-.877.705-.877.397 0 .733.536.733 1.17 0 .08-.006.16-.018.244Zm3.088.378a1.24 1.24 0 0 0 .056-.371c0-.575-.364-1.026-.83-1.026-.455 0-.825.46-.825 1.026 0 .038.002.077.005.115l-.07-.027a1.567 1.567 0 0 1-.08-.493c0-.687.44-1.247.98-1.247s.98.56.98 1.247c0 .286-.08.56-.216.776Zm-.398 1.338c-.008.035-.024.05-.207.146a5.579 5.579 0 0 0-.352.195l-.096.059c-.387.234-1.292.783-1.538.815-.167.023-.27-.042-.503-.2a7.12 7.12 0 0 0-.167-.111c-.419-.275-.688-.578-.719-.696.137-.105.475-.37.648-.526.352-.327.706-.546.88-.546.01 0 .018 0 .027.002.206.036.713.239 1.084.387.171.068.32.127.423.164.328.113.5.257.52.311Zm2.947 15.276c.184-.834.398-1.97.363-2.639a17.25 17.25 0 0 0-.034-.477c-.025-.3-.06-.744-.024-.876a.162.162 0 0 1 .025-.009c.002.383.085 1.146.695 1.412.182.08.39.12.618.12.611 0 1.29-.3 1.568-.578.163-.164.3-.364.397-.522a.63.63 0 0 1 .027.246c-.036.564.238 1.313.76 1.589l.076.04c.186.097.68.357.688.48 0 0-.004.014-.032.04-.123.113-.559.335-.98.55-.746.381-1.593.814-1.973 1.213-.535.564-1.14.942-1.506.942a.397.397 0 0 1-.12-.017c-.397-.124-.724-.697-.548-1.514ZM3.44 20.56c-.04-.19-.073-.34-.038-.484.025-.108.555-.223.781-.272.318-.07.647-.14.863-.271.29-.177.448-.502.587-.789.101-.207.205-.422.329-.492A.07.07 0 0 1 6 18.243c.231 0 .718.487.998.923.07.11.203.33.355.585.455.763 1.079 1.806 1.405 2.156.293.315.768.92.652 1.438-.086.402-.542.73-.65.802a.668.668 0 0 1-.143.013c-.624 0-1.858-.518-2.52-.797l-.099-.041c-.37-.155-.975-.253-1.56-.348-.464-.075-1.101-.178-1.207-.271-.085-.096.014-.408.102-.684a4.43 4.43 0 0 0 .163-.616c.051-.342-.009-.62-.056-.843Z" fill="#87AB49"/></g><defs><clipPath id="a"><path fill="#fff" transform="translate(.168 .438)" d="M0 0h25v25H0z"/></clipPath></defs></svg>