<svg width="25" height="25" fill="none" xmlns="http://www.w3.org/2000/svg"><g clip-path="url(#a)" fill="#87AB49"><path d="M12.666 16.923a3.984 3.984 0 1 0 0-7.97 3.984 3.984 0 0 0 0 7.97Z"/><path d="M7.399 11.786a5.4 5.4 0 0 1 5.266-4.238h10.728a12.025 12.025 0 0 0-2.242-3.095A11.922 11.922 0 0 0 12.665.938 11.922 11.922 0 0 0 4.18 4.453c-.218.218-.426.443-.625.674l3.844 6.659Z"/><path d="M14.301 18.075a5.394 5.394 0 0 1-6.337-2.5l-5.329-9.23a11.917 11.917 0 0 0-1.969 6.593 11.92 11.92 0 0 0 3.515 8.486 11.913 11.913 0 0 0 6.275 3.311l3.845-6.66Z"/><path d="M16.294 8.954a5.378 5.378 0 0 1 1.024 6.705l-.014.028-5.33 9.231a11.921 11.921 0 0 0 9.177-3.494 11.921 11.921 0 0 0 3.515-8.486c0-1.378-.231-2.72-.674-3.984h-7.698Z"/></g><defs><clipPath id="a"><path fill="#fff" transform="translate(.666 .938)" d="M0 0h24v24H0z"/></clipPath></defs></svg>